<svg width="229" height="31" viewBox="0 0 229 31" fill="none" xmlns="http://www.w3.org/2000/svg">
<g filter="url(#filter0_b_2_14)">
<mask id="path-1-outside-1_2_14" maskUnits="userSpaceOnUse" x="-1" y="-1" width="231" height="33" fill="black">
<rect fill="white" x="-1" y="-1" width="231" height="33"/>
<path d="M10.6705 30.3977C9.47727 30.3788 8.28409 30.1515 7.09091 29.7159C5.89773 29.2803 4.80871 28.5464 3.82386 27.5142C2.83902 26.4725 2.0483 25.0663 1.4517 23.2955C0.855114 21.5152 0.556818 19.2803 0.556818 16.5909C0.556818 14.0152 0.798295 11.733 1.28125 9.74432C1.7642 7.74621 2.46496 6.06534 3.38352 4.7017C4.30208 3.3286 5.41004 2.28693 6.70739 1.5767C8.0142 0.866476 9.48674 0.511363 11.125 0.511363C12.7538 0.511363 14.2027 0.838068 15.4716 1.49148C16.75 2.13542 17.7917 3.03504 18.5966 4.19034C19.4015 5.34564 19.9223 6.67614 20.1591 8.18182H16.6932C16.3712 6.875 15.7462 5.79072 14.8182 4.92898C13.8902 4.06723 12.6591 3.63636 11.125 3.63636C8.87121 3.63636 7.09564 4.61648 5.7983 6.5767C4.51042 8.53693 3.86174 11.2879 3.85227 14.8295H4.07955C4.60985 14.0246 5.23958 13.3381 5.96875 12.7699C6.70739 12.1922 7.52178 11.7472 8.41193 11.4347C9.30208 11.1222 10.2443 10.9659 11.2386 10.9659C12.9053 10.9659 14.4299 11.3826 15.8125 12.2159C17.1951 13.0398 18.303 14.1809 19.1364 15.6392C19.9697 17.0881 20.3864 18.75 20.3864 20.625C20.3864 22.4242 19.9839 24.072 19.179 25.5682C18.3741 27.0549 17.2424 28.2386 15.7841 29.1193C14.3352 29.9905 12.6307 30.4167 10.6705 30.3977ZM10.6705 27.2727C11.8636 27.2727 12.9337 26.9744 13.8807 26.3778C14.8371 25.7812 15.59 24.9811 16.1392 23.9773C16.6979 22.9735 16.9773 21.8561 16.9773 20.625C16.9773 19.4223 16.7074 18.3286 16.1676 17.3438C15.6373 16.3494 14.9034 15.5587 13.9659 14.9716C13.0379 14.3845 11.9773 14.0909 10.7841 14.0909C9.88447 14.0909 9.0464 14.2708 8.26989 14.6307C7.49337 14.9811 6.81155 15.464 6.22443 16.0795C5.64678 16.6951 5.19224 17.4006 4.8608 18.196C4.52936 18.982 4.36364 19.8106 4.36364 20.6818C4.36364 21.8371 4.63352 22.9167 5.1733 23.9205C5.72254 24.9242 6.47064 25.7339 7.41761 26.3494C8.37405 26.965 9.45833 27.2727 10.6705 27.2727ZM35.4609 30.3977C33.3208 30.3977 31.4979 29.8153 29.9922 28.6506C28.4865 27.4763 27.3359 25.7765 26.5405 23.5511C25.745 21.3163 25.3473 18.6174 25.3473 15.4545C25.3473 12.3106 25.745 9.62595 26.5405 7.40057C27.3454 5.16572 28.5007 3.46117 30.0064 2.28693C31.5215 1.10322 33.3397 0.511363 35.4609 0.511363C37.5821 0.511363 39.3956 1.10322 40.9013 2.28693C42.4164 3.46117 43.5717 5.16572 44.3672 7.40057C45.1721 9.62595 45.5746 12.3106 45.5746 15.4545C45.5746 18.6174 45.1768 21.3163 44.3814 23.5511C43.5859 25.7765 42.4354 27.4763 40.9297 28.6506C39.424 29.8153 37.6011 30.3977 35.4609 30.3977ZM35.4609 27.2727C37.5821 27.2727 39.2299 26.25 40.4041 24.2045C41.5784 22.1591 42.1655 19.2424 42.1655 15.4545C42.1655 12.9356 41.8956 10.7907 41.3558 9.01989C40.8255 7.24905 40.0585 5.89962 39.0547 4.97159C38.0604 4.04356 36.8625 3.57955 35.4609 3.57955C33.3587 3.57955 31.7157 4.61648 30.532 6.69034C29.3482 8.75473 28.7564 11.6761 28.7564 15.4545C28.7564 17.9735 29.0215 20.1136 29.5518 21.875C30.0821 23.6364 30.8445 24.9763 31.8388 25.8949C32.8426 26.8134 34.05 27.2727 35.4609 27.2727ZM63.5291 13.892V17.017H50.8018V13.892H63.5291ZM69.8821 0.90909H74.0866L83.973 25.0568H84.3139L94.2003 0.90909H98.4048V30H95.1094V7.89773H94.8253L85.7344 30H82.5526L73.4616 7.89773H73.1776V30H69.8821V0.90909ZM106.661 30H102.968L113.65 0.90909H117.286L127.968 30H124.275L115.582 5.51136H115.354L106.661 30ZM108.025 18.6364H122.911V21.7614H108.025V18.6364ZM132.499 30V0.90909H136.022V15.3409H136.363L149.431 0.90909H154.033L141.817 14.0341L154.033 30H149.772L139.658 16.4773L136.022 20.5682V30H132.499ZM157.002 4.03409V0.90909H178.82V4.03409H169.673V30H166.15V4.03409H157.002ZM182.052 30H178.359L189.04 0.90909H192.677L203.359 30H199.665L190.972 5.51136H190.745L182.052 30ZM183.415 18.6364H198.302V21.7614H183.415V18.6364ZM207.89 30V0.90909H218.06C220.087 0.90909 221.758 1.25947 223.075 1.96023C224.391 2.65151 225.371 3.58428 226.015 4.75852C226.659 5.92329 226.981 7.21591 226.981 8.63636C226.981 9.88636 226.758 10.9186 226.313 11.733C225.878 12.5473 225.3 13.1913 224.58 13.6648C223.87 14.1383 223.098 14.4886 222.265 14.7159V15C223.155 15.0568 224.05 15.3693 224.95 15.9375C225.849 16.5057 226.602 17.3201 227.208 18.3807C227.814 19.4413 228.117 20.7386 228.117 22.2727C228.117 23.7311 227.786 25.0426 227.123 26.2074C226.46 27.3722 225.414 28.2955 223.984 28.9773C222.554 29.6591 220.693 30 218.401 30H207.89ZM211.413 26.875H218.401C220.702 26.875 222.336 26.4299 223.302 25.5398C224.277 24.6402 224.765 23.5511 224.765 22.2727C224.765 21.2879 224.514 20.3788 224.012 19.5455C223.51 18.7027 222.795 18.0303 221.867 17.5284C220.939 17.017 219.841 16.7614 218.572 16.7614H211.413V26.875ZM211.413 13.6932H217.947C219.007 13.6932 219.964 13.4848 220.816 13.0682C221.678 12.6515 222.36 12.0644 222.862 11.3068C223.373 10.5492 223.629 9.65909 223.629 8.63636C223.629 7.35795 223.183 6.27367 222.293 5.38352C221.403 4.4839 219.992 4.03409 218.06 4.03409H211.413V13.6932Z"/>
</mask>
<path d="M10.6705 30.3977C9.47727 30.3788 8.28409 30.1515 7.09091 29.7159C5.89773 29.2803 4.80871 28.5464 3.82386 27.5142C2.83902 26.4725 2.0483 25.0663 1.4517 23.2955C0.855114 21.5152 0.556818 19.2803 0.556818 16.5909C0.556818 14.0152 0.798295 11.733 1.28125 9.74432C1.7642 7.74621 2.46496 6.06534 3.38352 4.7017C4.30208 3.3286 5.41004 2.28693 6.70739 1.5767C8.0142 0.866476 9.48674 0.511363 11.125 0.511363C12.7538 0.511363 14.2027 0.838068 15.4716 1.49148C16.75 2.13542 17.7917 3.03504 18.5966 4.19034C19.4015 5.34564 19.9223 6.67614 20.1591 8.18182H16.6932C16.3712 6.875 15.7462 5.79072 14.8182 4.92898C13.8902 4.06723 12.6591 3.63636 11.125 3.63636C8.87121 3.63636 7.09564 4.61648 5.7983 6.5767C4.51042 8.53693 3.86174 11.2879 3.85227 14.8295H4.07955C4.60985 14.0246 5.23958 13.3381 5.96875 12.7699C6.70739 12.1922 7.52178 11.7472 8.41193 11.4347C9.30208 11.1222 10.2443 10.9659 11.2386 10.9659C12.9053 10.9659 14.4299 11.3826 15.8125 12.2159C17.1951 13.0398 18.303 14.1809 19.1364 15.6392C19.9697 17.0881 20.3864 18.75 20.3864 20.625C20.3864 22.4242 19.9839 24.072 19.179 25.5682C18.3741 27.0549 17.2424 28.2386 15.7841 29.1193C14.3352 29.9905 12.6307 30.4167 10.6705 30.3977ZM10.6705 27.2727C11.8636 27.2727 12.9337 26.9744 13.8807 26.3778C14.8371 25.7812 15.59 24.9811 16.1392 23.9773C16.6979 22.9735 16.9773 21.8561 16.9773 20.625C16.9773 19.4223 16.7074 18.3286 16.1676 17.3438C15.6373 16.3494 14.9034 15.5587 13.9659 14.9716C13.0379 14.3845 11.9773 14.0909 10.7841 14.0909C9.88447 14.0909 9.0464 14.2708 8.26989 14.6307C7.49337 14.9811 6.81155 15.464 6.22443 16.0795C5.64678 16.6951 5.19224 17.4006 4.8608 18.196C4.52936 18.982 4.36364 19.8106 4.36364 20.6818C4.36364 21.8371 4.63352 22.9167 5.1733 23.9205C5.72254 24.9242 6.47064 25.7339 7.41761 26.3494C8.37405 26.965 9.45833 27.2727 10.6705 27.2727ZM35.4609 30.3977C33.3208 30.3977 31.4979 29.8153 29.9922 28.6506C28.4865 27.4763 27.3359 25.7765 26.5405 23.5511C25.745 21.3163 25.3473 18.6174 25.3473 15.4545C25.3473 12.3106 25.745 9.62595 26.5405 7.40057C27.3454 5.16572 28.5007 3.46117 30.0064 2.28693C31.5215 1.10322 33.3397 0.511363 35.4609 0.511363C37.5821 0.511363 39.3956 1.10322 40.9013 2.28693C42.4164 3.46117 43.5717 5.16572 44.3672 7.40057C45.1721 9.62595 45.5746 12.3106 45.5746 15.4545C45.5746 18.6174 45.1768 21.3163 44.3814 23.5511C43.5859 25.7765 42.4354 27.4763 40.9297 28.6506C39.424 29.8153 37.6011 30.3977 35.4609 30.3977ZM35.4609 27.2727C37.5821 27.2727 39.2299 26.25 40.4041 24.2045C41.5784 22.1591 42.1655 19.2424 42.1655 15.4545C42.1655 12.9356 41.8956 10.7907 41.3558 9.01989C40.8255 7.24905 40.0585 5.89962 39.0547 4.97159C38.0604 4.04356 36.8625 3.57955 35.4609 3.57955C33.3587 3.57955 31.7157 4.61648 30.532 6.69034C29.3482 8.75473 28.7564 11.6761 28.7564 15.4545C28.7564 17.9735 29.0215 20.1136 29.5518 21.875C30.0821 23.6364 30.8445 24.9763 31.8388 25.8949C32.8426 26.8134 34.05 27.2727 35.4609 27.2727ZM63.5291 13.892V17.017H50.8018V13.892H63.5291ZM69.8821 0.90909H74.0866L83.973 25.0568H84.3139L94.2003 0.90909H98.4048V30H95.1094V7.89773H94.8253L85.7344 30H82.5526L73.4616 7.89773H73.1776V30H69.8821V0.90909ZM106.661 30H102.968L113.65 0.90909H117.286L127.968 30H124.275L115.582 5.51136H115.354L106.661 30ZM108.025 18.6364H122.911V21.7614H108.025V18.6364ZM132.499 30V0.90909H136.022V15.3409H136.363L149.431 0.90909H154.033L141.817 14.0341L154.033 30H149.772L139.658 16.4773L136.022 20.5682V30H132.499ZM157.002 4.03409V0.90909H178.82V4.03409H169.673V30H166.15V4.03409H157.002ZM182.052 30H178.359L189.04 0.90909H192.677L203.359 30H199.665L190.972 5.51136H190.745L182.052 30ZM183.415 18.6364H198.302V21.7614H183.415V18.6364ZM207.89 30V0.90909H218.06C220.087 0.90909 221.758 1.25947 223.075 1.96023C224.391 2.65151 225.371 3.58428 226.015 4.75852C226.659 5.92329 226.981 7.21591 226.981 8.63636C226.981 9.88636 226.758 10.9186 226.313 11.733C225.878 12.5473 225.3 13.1913 224.58 13.6648C223.87 14.1383 223.098 14.4886 222.265 14.7159V15C223.155 15.0568 224.05 15.3693 224.95 15.9375C225.849 16.5057 226.602 17.3201 227.208 18.3807C227.814 19.4413 228.117 20.7386 228.117 22.2727C228.117 23.7311 227.786 25.0426 227.123 26.2074C226.46 27.3722 225.414 28.2955 223.984 28.9773C222.554 29.6591 220.693 30 218.401 30H207.89ZM211.413 26.875H218.401C220.702 26.875 222.336 26.4299 223.302 25.5398C224.277 24.6402 224.765 23.5511 224.765 22.2727C224.765 21.2879 224.514 20.3788 224.012 19.5455C223.51 18.7027 222.795 18.0303 221.867 17.5284C220.939 17.017 219.841 16.7614 218.572 16.7614H211.413V26.875ZM211.413 13.6932H217.947C219.007 13.6932 219.964 13.4848 220.816 13.0682C221.678 12.6515 222.36 12.0644 222.862 11.3068C223.373 10.5492 223.629 9.65909 223.629 8.63636C223.629 7.35795 223.183 6.27367 222.293 5.38352C221.403 4.4839 219.992 4.03409 218.06 4.03409H211.413V13.6932Z" fill="#972828"/>
<path d="M10.6705 30.3977L10.6546 31.3976L10.6608 31.3977L10.6705 30.3977ZM7.09091 29.7159L6.74797 30.6553L7.09091 29.7159ZM3.82386 27.5142L3.09721 28.2012L3.10036 28.2045L3.82386 27.5142ZM1.4517 23.2955L0.503526 23.6132L0.50404 23.6147L1.4517 23.2955ZM1.28125 9.74432L2.253 9.98031L2.25326 9.97926L1.28125 9.74432ZM3.38352 4.7017L4.21291 5.26039L4.21469 5.25773L3.38352 4.7017ZM6.70739 1.5767L6.22987 0.698073L6.22719 0.699542L6.70739 1.5767ZM15.4716 1.49148L15.0138 2.38057L15.0217 2.38458L15.4716 1.49148ZM18.5966 4.19034L19.4171 3.61868L18.5966 4.19034ZM20.1591 8.18182V9.18182H21.3286L21.147 8.02649L20.1591 8.18182ZM16.6932 8.18182L15.7222 8.42104L15.9097 9.18182H16.6932V8.18182ZM14.8182 4.92898L14.1377 5.66177L14.8182 4.92898ZM5.7983 6.5767L4.96439 6.02479L4.96254 6.02761L5.7983 6.5767ZM3.85227 14.8295L2.85228 14.8269L2.8496 15.8295H3.85227V14.8295ZM4.07955 14.8295V15.8295H4.61824L4.91461 15.3797L4.07955 14.8295ZM5.96875 12.7699L6.5834 13.5587L6.58479 13.5576L5.96875 12.7699ZM8.41193 11.4347L8.08069 10.4911L8.41193 11.4347ZM15.8125 12.2159L15.2963 13.0724L15.3006 13.075L15.8125 12.2159ZM19.1364 15.6392L18.2681 16.1353L18.2695 16.1378L19.1364 15.6392ZM19.179 25.5682L20.0584 26.0443L20.0596 26.042L19.179 25.5682ZM15.7841 29.1193L16.2994 29.9763L16.301 29.9753L15.7841 29.1193ZM13.8807 26.3778L13.3514 25.5294L13.3476 25.5317L13.8807 26.3778ZM16.1392 23.9773L15.2654 23.4909L15.2619 23.4973L16.1392 23.9773ZM16.1676 17.3438L15.2852 17.8144L15.2907 17.8244L16.1676 17.3438ZM13.9659 14.9716L13.4313 15.8167L13.4351 15.8191L13.9659 14.9716ZM8.26989 14.6307L8.6812 15.5422L8.69035 15.538L8.26989 14.6307ZM6.22443 16.0795L5.5008 15.3893L5.49524 15.3952L6.22443 16.0795ZM4.8608 18.196L5.78223 18.5846L5.78387 18.5806L4.8608 18.196ZM5.1733 23.9205L4.29253 24.3941L4.29603 24.4005L5.1733 23.9205ZM7.41761 26.3494L6.87262 27.1879L6.87644 27.1903L7.41761 26.3494ZM10.6863 29.3979C9.61179 29.3808 8.52894 29.1763 7.43385 28.7766L6.74797 30.6553C8.03924 31.1267 9.34276 31.3768 10.6546 31.3976L10.6863 29.3979ZM7.43385 28.7766C6.40188 28.3998 5.43935 27.7588 4.54737 26.8239L3.10036 28.2045C4.17808 29.3341 5.39357 30.1608 6.74797 30.6553L7.43385 28.7766ZM4.55051 26.8272C3.69042 25.9175 2.9632 24.6498 2.39937 22.9762L0.50404 23.6147C1.13339 25.4828 1.98761 27.0276 3.09722 28.2012L4.55051 26.8272ZM2.39988 22.9777C1.84895 21.3337 1.55682 19.2149 1.55682 16.5909H-0.443182C-0.443182 19.3457 -0.138719 21.6967 0.503527 23.6132L2.39988 22.9777ZM1.55682 16.5909C1.55682 14.0752 1.79291 11.8748 2.253 9.98031L0.309496 9.50832C-0.196317 11.5911 -0.443182 13.9551 -0.443182 16.5909H1.55682ZM2.25326 9.97926C2.715 8.06891 3.37503 6.50424 4.21291 5.26039L2.55414 4.14302C1.55489 5.62644 0.813406 7.42352 0.30924 9.50938L2.25326 9.97926ZM4.21469 5.25773C5.05441 4.00248 6.0472 3.07816 7.18758 2.45386L6.22719 0.699542C4.77288 1.4957 3.54976 2.65472 2.55236 4.14568L4.21469 5.25773ZM7.1849 2.45533C8.33069 1.83262 9.63626 1.51136 11.125 1.51136V-0.488638C9.33723 -0.488638 7.69772 -0.0996666 6.22987 0.698078L7.1849 2.45533ZM11.125 1.51136C12.6172 1.51136 13.9053 1.80973 15.0138 2.38053L15.9294 0.602422C14.5 -0.133599 12.8904 -0.488638 11.125 -0.488638V1.51136ZM15.0217 2.38458C16.1544 2.9551 17.0677 3.7453 17.7761 4.762L19.4171 3.61868C18.5156 2.32478 17.3456 1.31573 15.9214 0.598377L15.0217 2.38458ZM17.7761 4.762C18.4874 5.78296 18.956 6.96856 19.1712 8.33714L21.147 8.02649C20.8887 6.38371 20.3156 4.90833 19.4171 3.61868L17.7761 4.762ZM20.1591 7.18182H16.6932V9.18182H20.1591V7.18182ZM17.6641 7.94259C17.2986 6.45892 16.5787 5.19909 15.4986 4.19618L14.1377 5.66177C14.9137 6.38235 15.4438 7.29108 15.7222 8.42104L17.6641 7.94259ZM15.4986 4.19618C14.3481 3.12788 12.8552 2.63636 11.125 2.63636V4.63636C12.463 4.63636 13.4322 5.00659 14.1377 5.66177L15.4986 4.19618ZM11.125 2.63636C8.51874 2.63636 6.43738 3.79918 4.96439 6.0248L6.6322 7.12861C7.7539 5.43377 9.22368 4.63636 11.125 4.63636V2.63636ZM4.96254 6.02761C3.52657 8.21323 2.86202 11.1835 2.85228 14.8269L4.85227 14.8322C4.86147 11.3923 5.49426 8.86064 6.63405 7.1258L4.96254 6.02761ZM3.85227 15.8295H4.07955V13.8295H3.85227V15.8295ZM4.91461 15.3797C5.38752 14.6619 5.94385 14.057 6.5834 13.5587L5.3541 11.9811C4.53531 12.6191 3.83217 13.3874 3.24448 14.2794L4.91461 15.3797ZM6.58479 13.5576C7.23708 13.0475 7.95517 12.6548 8.74318 12.3782L8.08069 10.4911C7.08839 10.8395 6.17769 11.337 5.35271 11.9822L6.58479 13.5576ZM8.74318 12.3782C9.52125 12.1051 10.351 11.9659 11.2386 11.9659V9.96591C10.1376 9.96591 9.08292 10.1393 8.08069 10.4911L8.74318 12.3782ZM11.2386 11.9659C12.7296 11.9659 14.0747 12.3361 15.2963 13.0724L16.3287 11.3595C14.7851 10.4291 13.081 9.96591 11.2386 9.96591V11.9659ZM15.3006 13.075C16.5285 13.8067 17.5164 14.8199 18.2681 16.1353L20.0046 15.1431C19.0896 13.5419 17.8616 12.2729 16.3244 11.3569L15.3006 13.075ZM18.2695 16.1378C19.0054 17.4172 19.3864 18.9032 19.3864 20.625H21.3864C21.3864 18.5968 20.934 16.759 20.0032 15.1406L18.2695 16.1378ZM19.3864 20.625C19.3864 22.2689 19.0203 23.7524 18.2983 25.0944L20.0596 26.042C20.9475 24.3915 21.3864 22.5795 21.3864 20.625H19.3864ZM18.2996 25.0921C17.5802 26.4209 16.5742 27.474 15.2671 28.2633L16.301 29.9753C17.9106 29.0033 19.1679 27.6889 20.0584 26.0443L18.2996 25.0921ZM15.2688 28.2623C14.0022 29.0239 12.4855 29.4152 10.6801 29.3978L10.6608 31.3977C12.7759 31.4181 14.6683 30.9571 16.2994 29.9763L15.2688 28.2623ZM10.6705 28.2727C12.0393 28.2727 13.2965 27.9278 14.4137 27.2239L13.3476 25.5317C12.5709 26.0211 11.688 26.2727 10.6705 26.2727V28.2727ZM14.4099 27.2263C15.5144 26.5374 16.3861 25.6094 17.0165 24.4573L15.2619 23.4973C14.7938 24.3528 14.1599 25.0251 13.3514 25.5294L14.4099 27.2263ZM17.013 24.4636C17.6604 23.3005 17.9773 22.0137 17.9773 20.625H15.9773C15.9773 21.6984 15.7355 22.6465 15.2654 23.4909L17.013 24.4636ZM17.9773 20.625C17.9773 19.2666 17.6708 18.0057 17.0445 16.8631L15.2907 17.8244C15.744 18.6515 15.9773 19.5781 15.9773 20.625H17.9773ZM17.05 16.8732C16.439 15.7277 15.5852 14.8058 14.4967 14.1241L13.4351 15.8191C14.2216 16.3117 14.8356 16.9712 15.2853 17.8143L17.05 16.8732ZM14.5006 14.1265C13.3988 13.4295 12.1495 13.0909 10.7841 13.0909V15.0909C11.805 15.0909 12.677 15.3395 13.4313 15.8167L14.5006 14.1265ZM10.7841 13.0909C9.74685 13.0909 8.76443 13.2993 7.84943 13.7234L8.69035 15.538C9.32838 15.2423 10.0221 15.0909 10.7841 15.0909V13.0909ZM7.8586 13.7192C6.96488 14.1224 6.17697 14.6805 5.50082 15.3893L6.94804 16.7698C7.44614 16.2476 8.02187 15.8397 8.68118 15.5422L7.8586 13.7192ZM5.49524 15.3952C4.83379 16.1001 4.31431 16.9076 3.93772 17.8114L5.78387 18.5806C6.07016 17.8935 6.45978 17.2901 6.95362 16.7639L5.49524 15.3952ZM3.93937 17.8075C3.55495 18.7191 3.36364 19.6801 3.36364 20.6818H5.36364C5.36364 19.9412 5.50376 19.2449 5.78222 18.5846L3.93937 17.8075ZM3.36364 20.6818C3.36364 22.0001 3.67339 23.2426 4.29256 24.3941L6.05403 23.4468C5.59366 22.5907 5.36364 21.6742 5.36364 20.6818H3.36364ZM4.29603 24.4005C4.9236 25.5474 5.78507 26.481 6.87263 27.1879L7.9626 25.511C7.15622 24.9868 6.52148 24.3011 6.05056 23.4404L4.29603 24.4005ZM6.87644 27.1903C8.00502 27.9167 9.27961 28.2727 10.6705 28.2727V26.2727C9.63705 26.2727 8.74309 26.0133 7.95879 25.5085L6.87644 27.1903ZM29.9922 28.6506L29.3772 29.4391L29.3803 29.4415L29.9922 28.6506ZM26.5405 23.5511L25.5984 23.8865L25.5988 23.8877L26.5405 23.5511ZM26.5405 7.40057L25.5996 7.06171L25.5988 7.06398L26.5405 7.40057ZM30.0064 2.28693L30.6214 3.07548L30.622 3.07495L30.0064 2.28693ZM40.9013 2.28693L40.2832 3.0731L40.2887 3.07734L40.9013 2.28693ZM44.3672 7.40057L43.4251 7.7359L43.4268 7.7407L44.3672 7.40057ZM44.3814 23.5511L45.323 23.8877L45.3235 23.8865L44.3814 23.5511ZM40.9297 28.6506L41.5416 29.4415L41.5447 29.4391L40.9297 28.6506ZM40.4041 24.2045L39.5369 23.7067L40.4041 24.2045ZM41.3558 9.01989L40.3978 9.30677L40.3993 9.31145L41.3558 9.01989ZM39.0547 4.97159L38.3724 5.70265L38.3758 5.70586L39.0547 4.97159ZM30.532 6.69034L31.3995 7.18777L31.4004 7.18605L30.532 6.69034ZM29.5518 21.875L28.5943 22.1633L29.5518 21.875ZM31.8388 25.8949L31.1602 26.6294L31.1637 26.6326L31.8388 25.8949ZM35.4609 29.3977C33.5133 29.3977 31.9129 28.8721 30.6041 27.8596L29.3803 29.4415C31.0828 30.7585 33.1283 31.3977 35.4609 31.3977V29.3977ZM30.6072 27.862C29.283 26.8293 28.2289 25.3038 27.4821 23.2145L25.5988 23.8877C26.4429 26.2492 27.69 28.1233 29.3772 29.4391L30.6072 27.862ZM27.4826 23.2158C26.7358 21.1178 26.3473 18.5389 26.3473 15.4545H24.3473C24.3473 18.6959 24.7542 21.5148 25.5984 23.8865L27.4826 23.2158ZM26.3473 15.4545C26.3473 12.3897 26.7357 9.82543 27.4821 7.73716L25.5988 7.06398C24.7544 9.42646 24.3473 12.2315 24.3473 15.4545H26.3473ZM27.4813 7.73943C28.2378 5.63898 29.2971 4.10824 30.6214 3.07548L29.3914 1.49838C27.7043 2.8141 26.453 4.69246 25.5996 7.06171L27.4813 7.73943ZM30.622 3.07495C31.9431 2.04291 33.5384 1.51136 35.4609 1.51136V-0.488638C33.141 -0.488638 31.1 0.163524 29.3907 1.49891L30.622 3.07495ZM35.4609 1.51136C37.3835 1.51136 38.9729 2.0429 40.2832 3.07308L41.5193 1.50078C39.8183 0.163533 37.7808 -0.488638 35.4609 -0.488638V1.51136ZM40.2887 3.07734C41.6205 4.10947 42.6785 5.63831 43.4251 7.73589L45.3093 7.06524C44.465 4.69313 43.2124 2.81287 41.5139 1.49652L40.2887 3.07734ZM43.4268 7.7407C44.1817 9.82777 44.5746 12.3908 44.5746 15.4545H46.5746C46.5746 12.2305 46.1625 9.42413 45.3076 7.06043L43.4268 7.7407ZM44.5746 15.4545C44.5746 18.5389 44.186 21.1178 43.4393 23.2158L45.3235 23.8865C46.1677 21.5148 46.5746 18.6959 46.5746 15.4545H44.5746ZM43.4397 23.2145C42.693 25.3038 41.6389 26.8293 40.3147 27.862L41.5447 29.4391C43.2318 28.1233 44.4789 26.2492 45.323 23.8877L43.4397 23.2145ZM40.3178 27.8596C39.0089 28.8721 37.4086 29.3977 35.4609 29.3977V31.3977C37.7936 31.3977 39.8391 30.7585 41.5416 29.4415L40.3178 27.8596ZM35.4609 28.2727C37.9863 28.2727 39.943 27.0164 41.2714 24.7024L39.5369 23.7067C38.5168 25.4836 37.178 26.2727 35.4609 26.2727V28.2727ZM41.2714 24.7024C42.5702 22.44 43.1655 19.3218 43.1655 15.4545H41.1655C41.1655 19.163 40.5866 21.8782 39.5369 23.7067L41.2714 24.7024ZM43.1655 15.4545C43.1655 12.8698 42.8892 10.6208 42.3124 8.72832L40.3993 9.31145C40.902 10.9607 41.1655 13.0014 41.1655 15.4545H43.1655ZM42.3138 8.73301C41.7496 6.84896 40.9071 5.32232 39.7335 4.23732L38.3758 5.70586C39.2098 6.47692 39.9015 7.64915 40.3979 9.30676L42.3138 8.73301ZM39.737 4.24053C38.5514 3.13394 37.1072 2.57955 35.4609 2.57955V4.57955C36.6177 4.57955 37.5694 4.95318 38.3724 5.70265L39.737 4.24053ZM35.4609 2.57955C32.9445 2.57955 30.9961 3.85995 29.6635 6.19463L31.4004 7.18605C32.4353 5.37301 33.7728 4.57955 35.4609 4.57955V2.57955ZM29.6645 6.19292C28.3572 8.4728 27.7564 11.5944 27.7564 15.4545H29.7564C29.7564 11.7579 30.3393 9.03667 31.3995 7.18777L29.6645 6.19292ZM27.7564 15.4545C27.7564 18.0378 28.0276 20.2811 28.5943 22.1633L30.5094 21.5867C30.0155 19.9462 29.7564 17.9092 29.7564 15.4545H27.7564ZM28.5943 22.1633C29.1583 24.0366 29.9958 25.5538 31.1602 26.6294L32.5173 25.1604C31.6931 24.3989 31.006 23.2361 30.5094 21.5867L28.5943 22.1633ZM31.1637 26.6326C32.3592 27.7266 33.8102 28.2727 35.4609 28.2727V26.2727C34.2897 26.2727 33.3259 25.9003 32.5139 25.1572L31.1637 26.6326ZM63.5291 13.892H64.5291V12.892H63.5291V13.892ZM63.5291 17.017V18.017H64.5291V17.017H63.5291ZM50.8018 17.017H49.8018V18.017H50.8018V17.017ZM50.8018 13.892V12.892H49.8018V13.892H50.8018ZM62.5291 13.892V17.017H64.5291V13.892H62.5291ZM63.5291 16.017H50.8018V18.017H63.5291V16.017ZM51.8018 17.017V13.892H49.8018V17.017H51.8018ZM50.8018 14.892H63.5291V12.892H50.8018V14.892ZM69.8821 0.90909V-0.09091H68.8821V0.90909H69.8821ZM74.0866 0.90909L75.0121 0.530203L74.7578 -0.09091H74.0866V0.90909ZM83.973 25.0568L83.0476 25.4357L83.3019 26.0568H83.973V25.0568ZM84.3139 25.0568V26.0568H84.9851L85.2394 25.4357L84.3139 25.0568ZM94.2003 0.90909V-0.09091H93.5291L93.2748 0.530203L94.2003 0.90909ZM98.4048 0.90909H99.4048V-0.09091H98.4048V0.90909ZM98.4048 30V31H99.4048V30H98.4048ZM95.1094 30H94.1094V31H95.1094V30ZM95.1094 7.89773H96.1094V6.89773H95.1094V7.89773ZM94.8253 7.89773V6.89773H94.1553L93.9005 7.51734L94.8253 7.89773ZM85.7344 30V31H86.4044L86.6592 30.3804L85.7344 30ZM82.5526 30L81.6277 30.3804L81.8826 31H82.5526V30ZM73.4616 7.89773L74.3865 7.51734L74.1316 6.89773H73.4616V7.89773ZM73.1776 7.89773V6.89773H72.1776V7.89773H73.1776ZM73.1776 30V31H74.1776V30H73.1776ZM69.8821 30H68.8821V31H69.8821V30ZM69.8821 1.90909H74.0866V-0.09091H69.8821V1.90909ZM73.1612 1.28798L83.0476 25.4357L84.8985 24.6779L75.0121 0.530203L73.1612 1.28798ZM83.973 26.0568H84.3139V24.0568H83.973V26.0568ZM85.2394 25.4357L95.1257 1.28798L93.2748 0.530203L83.3885 24.6779L85.2394 25.4357ZM94.2003 1.90909H98.4048V-0.09091H94.2003V1.90909ZM97.4048 0.90909V30H99.4048V0.90909H97.4048ZM98.4048 29H95.1094V31H98.4048V29ZM96.1094 30V7.89773H94.1094V30H96.1094ZM95.1094 6.89773H94.8253V8.89773H95.1094V6.89773ZM93.9005 7.51734L84.8095 29.6196L86.6592 30.3804L95.7501 8.27812L93.9005 7.51734ZM85.7344 29H82.5526V31H85.7344V29ZM83.4774 29.6196L74.3865 7.51734L72.5368 8.27812L81.6277 30.3804L83.4774 29.6196ZM73.4616 6.89773H73.1776V8.89773H73.4616V6.89773ZM72.1776 7.89773V30H74.1776V7.89773H72.1776ZM73.1776 29H69.8821V31H73.1776V29ZM70.8821 30V0.90909H68.8821V30H70.8821ZM106.661 30V31H107.367L107.604 30.3345L106.661 30ZM102.968 30L102.029 29.6553L101.536 31H102.968V30ZM113.65 0.90909V-0.09091H112.952L112.711 0.564404L113.65 0.90909ZM117.286 0.90909L118.225 0.564404L117.984 -0.09091H117.286V0.90909ZM127.968 30V31H129.401L128.907 29.6553L127.968 30ZM124.275 30L123.332 30.3345L123.569 31H124.275V30ZM115.582 5.51136L116.524 5.17683L116.288 4.51136H115.582V5.51136ZM115.354 5.51136V4.51136H114.648L114.412 5.17683L115.354 5.51136ZM108.025 18.6364V17.6364H107.025V18.6364H108.025ZM122.911 18.6364H123.911V17.6364H122.911V18.6364ZM122.911 21.7614V22.7614H123.911V21.7614H122.911ZM108.025 21.7614H107.025V22.7614H108.025V21.7614ZM106.661 29H102.968V31H106.661V29ZM103.907 30.3447L114.589 1.25378L112.711 0.564404L102.029 29.6553L103.907 30.3447ZM113.65 1.90909H117.286V-0.09091H113.65V1.90909ZM116.348 1.25378L127.029 30.3447L128.907 29.6553L118.225 0.564404L116.348 1.25378ZM127.968 29H124.275V31H127.968V29ZM125.217 29.6655L116.524 5.17683L114.639 5.8459L123.332 30.3345L125.217 29.6655ZM115.582 4.51136H115.354V6.51136H115.582V4.51136ZM114.412 5.17683L105.719 29.6655L107.604 30.3345L116.297 5.8459L114.412 5.17683ZM108.025 19.6364H122.911V17.6364H108.025V19.6364ZM121.911 18.6364V21.7614H123.911V18.6364H121.911ZM122.911 20.7614H108.025V22.7614H122.911V20.7614ZM109.025 21.7614V18.6364H107.025V21.7614H109.025ZM132.499 30H131.499V31H132.499V30ZM132.499 0.90909V-0.09091H131.499V0.90909H132.499ZM136.022 0.90909H137.022V-0.09091H136.022V0.90909ZM136.022 15.3409H135.022V16.3409H136.022V15.3409ZM136.363 15.3409V16.3409H136.806L137.104 16.0121L136.363 15.3409ZM149.431 0.90909V-0.09091H148.988L148.69 0.237871L149.431 0.90909ZM154.033 0.90909L154.765 1.59039L156.33 -0.09091H154.033V0.90909ZM141.817 14.0341L141.085 13.3528L140.51 13.971L141.023 14.6418L141.817 14.0341ZM154.033 30V31H156.058L154.828 29.3923L154.033 30ZM149.772 30L148.971 30.5989L149.271 31H149.772V30ZM139.658 16.4773L140.459 15.8783L139.725 14.8969L138.911 15.8129L139.658 16.4773ZM136.022 20.5682L135.275 19.9038L135.022 20.188V20.5682H136.022ZM136.022 30V31H137.022V30H136.022ZM133.499 30V0.90909H131.499V30H133.499ZM132.499 1.90909H136.022V-0.09091H132.499V1.90909ZM135.022 0.90909V15.3409H137.022V0.90909H135.022ZM136.022 16.3409H136.363V14.3409H136.022V16.3409ZM137.104 16.0121L150.172 1.58031L148.69 0.237871L135.622 14.6697L137.104 16.0121ZM149.431 1.90909H154.033V-0.09091H149.431V1.90909ZM153.301 0.227789L141.085 13.3528L142.549 14.7154L154.765 1.59039L153.301 0.227789ZM141.023 14.6418L153.239 30.6077L154.828 29.3923L142.612 13.4264L141.023 14.6418ZM154.033 29H149.772V31H154.033V29ZM150.573 29.4011L140.459 15.8783L138.858 17.0762L148.971 30.5989L150.573 29.4011ZM138.911 15.8129L135.275 19.9038L136.769 21.2325L140.406 17.1416L138.911 15.8129ZM135.022 20.5682V30H137.022V20.5682H135.022ZM136.022 29H132.499V31H136.022V29ZM157.002 4.03409H156.002V5.03409H157.002V4.03409ZM157.002 0.90909V-0.09091H156.002V0.90909H157.002ZM178.82 0.90909H179.82V-0.09091H178.82V0.90909ZM178.82 4.03409V5.03409H179.82V4.03409H178.82ZM169.673 4.03409V3.03409H168.673V4.03409H169.673ZM169.673 30V31H170.673V30H169.673ZM166.15 30H165.15V31H166.15V30ZM166.15 4.03409H167.15V3.03409H166.15V4.03409ZM158.002 4.03409V0.90909H156.002V4.03409H158.002ZM157.002 1.90909H178.82V-0.09091H157.002V1.90909ZM177.82 0.90909V4.03409H179.82V0.90909H177.82ZM178.82 3.03409H169.673V5.03409H178.82V3.03409ZM168.673 4.03409V30H170.673V4.03409H168.673ZM169.673 29H166.15V31H169.673V29ZM167.15 30V4.03409H165.15V30H167.15ZM166.15 3.03409H157.002V5.03409H166.15V3.03409ZM182.052 30V31H182.758L182.994 30.3345L182.052 30ZM178.359 30L177.42 29.6553L176.926 31H178.359V30ZM189.04 0.90909V-0.09091H188.342L188.102 0.564404L189.04 0.90909ZM192.677 0.90909L193.616 0.564404L193.375 -0.09091H192.677V0.90909ZM203.359 30V31H204.791L204.297 29.6553L203.359 30ZM199.665 30L198.723 30.3345L198.959 31H199.665V30ZM190.972 5.51136L191.915 5.17683L191.678 4.51136H190.972V5.51136ZM190.745 5.51136V4.51136H190.039L189.803 5.17683L190.745 5.51136ZM183.415 18.6364V17.6364H182.415V18.6364H183.415ZM198.302 18.6364H199.302V17.6364H198.302V18.6364ZM198.302 21.7614V22.7614H199.302V21.7614H198.302ZM183.415 21.7614H182.415V22.7614H183.415V21.7614ZM182.052 29H178.359V31H182.052V29ZM179.297 30.3447L189.979 1.25378L188.102 0.564404L177.42 29.6553L179.297 30.3447ZM189.04 1.90909H192.677V-0.09091H189.04V1.90909ZM191.738 1.25378L202.42 30.3447L204.297 29.6553L193.616 0.564404L191.738 1.25378ZM203.359 29H199.665V31H203.359V29ZM200.608 29.6655L191.915 5.17683L190.03 5.8459L198.723 30.3345L200.608 29.6655ZM190.972 4.51136H190.745V6.51136H190.972V4.51136ZM189.803 5.17683L181.109 29.6655L182.994 30.3345L191.687 5.8459L189.803 5.17683ZM183.415 19.6364H198.302V17.6364H183.415V19.6364ZM197.302 18.6364V21.7614H199.302V18.6364H197.302ZM198.302 20.7614H183.415V22.7614H198.302V20.7614ZM184.415 21.7614V18.6364H182.415V21.7614H184.415ZM207.89 30H206.89V31H207.89V30ZM207.89 0.90909V-0.09091H206.89V0.90909H207.89ZM223.075 1.96023L222.605 2.84295L222.61 2.84556L223.075 1.96023ZM226.015 4.75852L225.138 5.23936L225.14 5.24235L226.015 4.75852ZM226.313 11.733L225.436 11.2534L225.431 11.2613L226.313 11.733ZM224.58 13.6648L224.031 12.8293L224.026 12.8327L224.58 13.6648ZM222.265 14.7159L222.002 13.7511L221.265 13.9521V14.7159H222.265ZM222.265 15H221.265V15.9382L222.201 15.998L222.265 15ZM224.95 15.9375L224.416 16.783L224.95 15.9375ZM227.123 26.2074L227.992 26.702L227.123 26.2074ZM223.984 28.9773L223.553 28.0746L223.984 28.9773ZM211.413 26.875H210.413V27.875H211.413V26.875ZM223.302 25.5398L223.98 26.2751L223.98 26.2748L223.302 25.5398ZM224.012 19.5455L223.153 20.0571L223.155 20.0614L224.012 19.5455ZM221.867 17.5284L221.385 18.4043L221.391 18.408L221.867 17.5284ZM211.413 16.7614V15.7614H210.413V16.7614H211.413ZM211.413 13.6932H210.413V14.6932H211.413V13.6932ZM220.816 13.0682L220.381 12.1679L220.377 12.1698L220.816 13.0682ZM222.862 11.3068L222.033 10.7473L222.028 10.7545L222.862 11.3068ZM222.293 5.38352L221.582 6.08689L221.586 6.09063L222.293 5.38352ZM211.413 4.03409V3.03409H210.413V4.03409H211.413ZM208.89 30V0.90909H206.89V30H208.89ZM207.89 1.90909H218.06V-0.09091H207.89V1.90909ZM218.06 1.90909C219.979 1.90909 221.476 2.24184 222.605 2.84293L223.545 1.07752C222.041 0.277102 220.195 -0.09091 218.06 -0.09091V1.90909ZM222.61 2.84556C223.772 3.45589 224.599 4.25622 225.138 5.23935L226.892 4.27769C226.143 2.91234 225.01 1.84714 223.54 1.07489L222.61 2.84556ZM225.14 5.24235C225.696 6.24906 225.981 7.3734 225.981 8.63636H227.981C227.981 7.05841 227.621 5.59753 226.89 4.27469L225.14 5.24235ZM225.981 8.63636C225.981 9.77452 225.777 10.6282 225.436 11.2534L227.191 12.2125C227.739 11.2089 227.981 9.99821 227.981 8.63636H225.981ZM225.431 11.2613C225.069 11.9396 224.601 12.4541 224.031 12.8294L225.13 14.5002C225.999 13.9285 226.687 13.1551 227.195 12.2046L225.431 11.2613ZM224.026 12.8327C223.406 13.2459 222.733 13.5518 222.002 13.7511L222.528 15.6807C223.464 15.4255 224.334 15.0306 225.135 14.4968L224.026 12.8327ZM221.265 14.7159V15H223.265V14.7159H221.265ZM222.201 15.998C222.895 16.0422 223.63 16.287 224.416 16.783L225.484 15.092C224.47 14.4517 223.415 14.0714 222.329 14.002L222.201 15.998ZM224.416 16.783C225.158 17.2516 225.803 17.9371 226.34 18.8768L228.076 17.8845C227.401 16.7031 226.541 15.7597 225.484 15.092L224.416 16.783ZM226.34 18.8768C226.84 19.7523 227.117 20.8688 227.117 22.2727H229.117C229.117 20.6085 228.788 19.1303 228.076 17.8845L226.34 18.8768ZM227.117 22.2727C227.117 23.5734 226.823 24.7118 226.254 25.7128L227.992 26.702C228.748 25.3734 229.117 23.8888 229.117 22.2727H227.117ZM226.254 25.7128C225.709 26.6694 224.833 27.4644 223.553 28.0746L224.414 29.8799C225.994 29.1265 227.211 28.0749 227.992 26.702L226.254 25.7128ZM223.553 28.0746C222.304 28.6703 220.606 29 218.401 29V31C220.78 31 222.803 30.6479 224.414 29.8799L223.553 28.0746ZM218.401 29H207.89V31H218.401V29ZM211.413 27.875H218.401V25.875H211.413V27.875ZM218.401 27.875C220.781 27.875 222.732 27.4243 223.98 26.2751L222.624 24.8044C221.939 25.4355 220.624 25.875 218.401 25.875V27.875ZM223.98 26.2748C225.152 25.194 225.765 23.8421 225.765 22.2727H223.765C223.765 23.2601 223.403 24.0863 222.624 24.8047L223.98 26.2748ZM225.765 22.2727C225.765 21.1084 225.466 20.0206 224.869 19.0295L223.155 20.0614C223.562 20.7369 223.765 21.4673 223.765 22.2727H225.765ZM224.871 19.0338C224.27 18.0243 223.417 17.2298 222.343 16.6488L221.391 18.408C222.173 18.8308 222.75 19.381 223.153 20.0571L224.871 19.0338ZM222.35 16.6526C221.247 16.0451 219.976 15.7614 218.572 15.7614V17.7614C219.705 17.7614 220.631 17.989 221.385 18.4042L222.35 16.6526ZM218.572 15.7614H211.413V17.7614H218.572V15.7614ZM210.413 16.7614V26.875H212.413V16.7614H210.413ZM211.413 14.6932H217.947V12.6932H211.413V14.6932ZM217.947 14.6932C219.141 14.6932 220.251 14.4576 221.255 13.9666L220.377 12.1698C219.677 12.5121 218.873 12.6932 217.947 12.6932V14.6932ZM221.251 13.9685C222.266 13.478 223.089 12.7744 223.695 11.8591L222.028 10.7545C221.63 11.3544 221.09 11.825 220.381 12.1679L221.251 13.9685ZM223.69 11.8663C224.326 10.9242 224.629 9.83386 224.629 8.63636H222.629C222.629 9.48432 222.419 10.1743 222.033 10.7473L223.69 11.8663ZM224.629 8.63636C224.629 7.09736 224.081 5.75735 223 4.67642L221.586 6.09063C222.286 6.79 222.629 7.61855 222.629 8.63636H224.629ZM223.004 4.68017C221.847 3.511 220.121 3.03409 218.06 3.03409V5.03409C219.863 5.03409 220.959 5.4568 221.582 6.08688L223.004 4.68017ZM218.06 3.03409H211.413V5.03409H218.06V3.03409ZM210.413 4.03409V13.6932H212.413V4.03409H210.413Z" fill="black" mask="url(#path-1-outside-1_2_14)"/>
</g>
<defs>
<filter id="filter0_b_2_14" x="-3.44324" y="-3.48865" width="235.56" height="37.9148" filterUnits="userSpaceOnUse" color-interpolation-filters="sRGB">
<feFlood flood-opacity="0" result="BackgroundImageFix"/>
<feGaussianBlur in="BackgroundImageFix" stdDeviation="2"/>
<feComposite in2="SourceAlpha" operator="in" result="effect1_backgroundBlur_2_14"/>
<feBlend mode="normal" in="SourceGraphic" in2="effect1_backgroundBlur_2_14" result="shape"/>
</filter>
</defs>
</svg>
